<mxfile host="Electron" modified="2024-04-22T01:55:55.358Z" agent="Mozilla/5.0 (Windows NT 10.0; Win64; x64) AppleWebKit/537.36 (KHTML, like Gecko) draw.io/24.2.5 Chrome/120.0.6099.109 Electron/28.1.0 Safari/537.36" etag="AGUaw8DRUYR_W5EssLdE" version="24.2.5" type="device">
  <diagram id="C5RBs43oDa-KdzZeNtuy" name="Page-1">
    <mxGraphModel dx="1098" dy="820" grid="1" gridSize="10" guides="1" tooltips="1" connect="1" arrows="1" fold="1" page="1" pageScale="1" pageWidth="827" pageHeight="1169" math="0" shadow="0">
      <root>
        <mxCell id="WIyWlLk6GJQsqaUBKTNV-0" />
        <mxCell id="WIyWlLk6GJQsqaUBKTNV-1" parent="WIyWlLk6GJQsqaUBKTNV-0" />
        <mxCell id="jvTlIpNI3oYcWQ1an9Ka-0" value="Stock" style="rounded=0;whiteSpace=wrap;html=1;" parent="WIyWlLk6GJQsqaUBKTNV-1" vertex="1">
          <mxGeometry x="270" y="360" width="120" height="60" as="geometry" />
        </mxCell>
        <mxCell id="jvTlIpNI3oYcWQ1an9Ka-1" value="" style="endArrow=none;html=1;rounded=0;exitX=0;exitY=0.25;exitDx=0;exitDy=0;" parent="WIyWlLk6GJQsqaUBKTNV-1" source="jvTlIpNI3oYcWQ1an9Ka-0" target="jvTlIpNI3oYcWQ1an9Ka-2" edge="1">
          <mxGeometry width="50" height="50" relative="1" as="geometry">
            <mxPoint x="390" y="450" as="sourcePoint" />
            <mxPoint x="290" y="350" as="targetPoint" />
          </mxGeometry>
        </mxCell>
        <mxCell id="jvTlIpNI3oYcWQ1an9Ka-2" value="symbol" style="ellipse;whiteSpace=wrap;html=1;" parent="WIyWlLk6GJQsqaUBKTNV-1" vertex="1">
          <mxGeometry x="100" y="260" width="120" height="50" as="geometry" />
        </mxCell>
        <mxCell id="jvTlIpNI3oYcWQ1an9Ka-3" value="company_name" style="ellipse;whiteSpace=wrap;html=1;" parent="WIyWlLk6GJQsqaUBKTNV-1" vertex="1">
          <mxGeometry x="80" y="360" width="120" height="50" as="geometry" />
        </mxCell>
        <mxCell id="jvTlIpNI3oYcWQ1an9Ka-5" value="" style="endArrow=none;html=1;rounded=0;entryX=1;entryY=0.5;entryDx=0;entryDy=0;exitX=0;exitY=0.75;exitDx=0;exitDy=0;" parent="WIyWlLk6GJQsqaUBKTNV-1" source="jvTlIpNI3oYcWQ1an9Ka-0" target="jvTlIpNI3oYcWQ1an9Ka-3" edge="1">
          <mxGeometry width="50" height="50" relative="1" as="geometry">
            <mxPoint x="340" y="430" as="sourcePoint" />
            <mxPoint x="249" y="337" as="targetPoint" />
          </mxGeometry>
        </mxCell>
        <mxCell id="jvTlIpNI3oYcWQ1an9Ka-6" value="stock_exchange" style="ellipse;whiteSpace=wrap;html=1;" parent="WIyWlLk6GJQsqaUBKTNV-1" vertex="1">
          <mxGeometry x="70" y="460" width="120" height="50" as="geometry" />
        </mxCell>
        <mxCell id="jvTlIpNI3oYcWQ1an9Ka-7" value="" style="endArrow=none;html=1;rounded=0;entryX=0.942;entryY=0.3;entryDx=0;entryDy=0;exitX=0;exitY=1;exitDx=0;exitDy=0;entryPerimeter=0;" parent="WIyWlLk6GJQsqaUBKTNV-1" source="jvTlIpNI3oYcWQ1an9Ka-0" target="jvTlIpNI3oYcWQ1an9Ka-6" edge="1">
          <mxGeometry width="50" height="50" relative="1" as="geometry">
            <mxPoint x="360" y="445" as="sourcePoint" />
            <mxPoint x="230" y="395" as="targetPoint" />
          </mxGeometry>
        </mxCell>
        <mxCell id="jvTlIpNI3oYcWQ1an9Ka-9" value="" style="endArrow=none;html=1;rounded=0;exitX=1;exitY=0.5;exitDx=0;exitDy=0;" parent="WIyWlLk6GJQsqaUBKTNV-1" source="jvTlIpNI3oYcWQ1an9Ka-0" target="jvTlIpNI3oYcWQ1an9Ka-10" edge="1">
          <mxGeometry width="50" height="50" relative="1" as="geometry">
            <mxPoint x="390" y="450" as="sourcePoint" />
            <mxPoint x="460" y="390" as="targetPoint" />
            <Array as="points">
              <mxPoint x="560" y="390" />
            </Array>
          </mxGeometry>
        </mxCell>
        <mxCell id="jvTlIpNI3oYcWQ1an9Ka-10" value="DailyStockMetric" style="rhombus;whiteSpace=wrap;html=1;" parent="WIyWlLk6GJQsqaUBKTNV-1" vertex="1">
          <mxGeometry x="510" y="200" width="100" height="125" as="geometry" />
        </mxCell>
        <mxCell id="jvTlIpNI3oYcWQ1an9Ka-11" value="" style="endArrow=none;html=1;rounded=0;exitX=0.5;exitY=0;exitDx=0;exitDy=0;entryX=0;entryY=0.5;entryDx=0;entryDy=0;" parent="WIyWlLk6GJQsqaUBKTNV-1" source="jvTlIpNI3oYcWQ1an9Ka-0" target="jvTlIpNI3oYcWQ1an9Ka-10" edge="1">
          <mxGeometry width="50" height="50" relative="1" as="geometry">
            <mxPoint x="400" y="400" as="sourcePoint" />
            <mxPoint x="570" y="335" as="targetPoint" />
            <Array as="points">
              <mxPoint x="330" y="263" />
            </Array>
          </mxGeometry>
        </mxCell>
        <mxCell id="jvTlIpNI3oYcWQ1an9Ka-12" value="" style="endArrow=classic;html=1;rounded=0;entryX=1;entryY=0.5;entryDx=0;entryDy=0;" parent="WIyWlLk6GJQsqaUBKTNV-1" target="jvTlIpNI3oYcWQ1an9Ka-0" edge="1">
          <mxGeometry width="50" height="50" relative="1" as="geometry">
            <mxPoint x="470" y="390" as="sourcePoint" />
            <mxPoint x="440" y="400" as="targetPoint" />
          </mxGeometry>
        </mxCell>
        <mxCell id="jvTlIpNI3oYcWQ1an9Ka-13" value="" style="endArrow=none;html=1;rounded=0;exitX=1;exitY=0.5;exitDx=0;exitDy=0;" parent="WIyWlLk6GJQsqaUBKTNV-1" source="jvTlIpNI3oYcWQ1an9Ka-10" edge="1">
          <mxGeometry width="50" height="50" relative="1" as="geometry">
            <mxPoint x="390" y="450" as="sourcePoint" />
            <mxPoint x="680" y="270" as="targetPoint" />
            <Array as="points">
              <mxPoint x="680" y="263" />
            </Array>
          </mxGeometry>
        </mxCell>
        <mxCell id="jvTlIpNI3oYcWQ1an9Ka-15" value="Date" style="ellipse;whiteSpace=wrap;html=1;" parent="WIyWlLk6GJQsqaUBKTNV-1" vertex="1">
          <mxGeometry x="630" y="270" width="120" height="50" as="geometry" />
        </mxCell>
        <mxCell id="jvTlIpNI3oYcWQ1an9Ka-16" value="" style="endArrow=none;html=1;rounded=0;exitX=0.69;exitY=0.16;exitDx=0;exitDy=0;exitPerimeter=0;" parent="WIyWlLk6GJQsqaUBKTNV-1" source="jvTlIpNI3oYcWQ1an9Ka-10" edge="1">
          <mxGeometry width="50" height="50" relative="1" as="geometry">
            <mxPoint x="590" y="240" as="sourcePoint" />
            <mxPoint x="670" y="120" as="targetPoint" />
          </mxGeometry>
        </mxCell>
        <mxCell id="jvTlIpNI3oYcWQ1an9Ka-17" value="Date" style="ellipse;whiteSpace=wrap;html=1;" parent="WIyWlLk6GJQsqaUBKTNV-1" vertex="1">
          <mxGeometry x="640" y="280" width="120" height="50" as="geometry" />
        </mxCell>
        <mxCell id="jvTlIpNI3oYcWQ1an9Ka-18" value="Date" style="ellipse;whiteSpace=wrap;html=1;" parent="WIyWlLk6GJQsqaUBKTNV-1" vertex="1">
          <mxGeometry x="680" y="140" width="120" height="50" as="geometry" />
        </mxCell>
        <mxCell id="jvTlIpNI3oYcWQ1an9Ka-19" value="metric_id" style="ellipse;whiteSpace=wrap;html=1;" parent="WIyWlLk6GJQsqaUBKTNV-1" vertex="1">
          <mxGeometry x="630" y="70" width="120" height="50" as="geometry" />
        </mxCell>
        <mxCell id="jvTlIpNI3oYcWQ1an9Ka-20" value="stock_id" style="ellipse;whiteSpace=wrap;html=1;" parent="WIyWlLk6GJQsqaUBKTNV-1" vertex="1">
          <mxGeometry x="500" y="50" width="120" height="50" as="geometry" />
        </mxCell>
        <mxCell id="jvTlIpNI3oYcWQ1an9Ka-21" value="" style="endArrow=none;html=1;rounded=0;" parent="WIyWlLk6GJQsqaUBKTNV-1" edge="1">
          <mxGeometry width="50" height="50" relative="1" as="geometry">
            <mxPoint x="600" y="250" as="sourcePoint" />
            <mxPoint x="730" y="180" as="targetPoint" />
          </mxGeometry>
        </mxCell>
        <mxCell id="jvTlIpNI3oYcWQ1an9Ka-22" value="" style="endArrow=none;html=1;rounded=0;exitX=0.5;exitY=0;exitDx=0;exitDy=0;" parent="WIyWlLk6GJQsqaUBKTNV-1" source="jvTlIpNI3oYcWQ1an9Ka-10" edge="1">
          <mxGeometry width="50" height="50" relative="1" as="geometry">
            <mxPoint x="610" y="260" as="sourcePoint" />
            <mxPoint x="570" y="100" as="targetPoint" />
          </mxGeometry>
        </mxCell>
      </root>
    </mxGraphModel>
  </diagram>
</mxfile>
